#N canvas 644 236 450 300 10;
#X obj 111 152 osc~ 100;
#X obj 178 33 nbx 5 16 0.1 20 0 0 empty empty empty 0 -8 0 10 -260097
-1 -1 3.2 256;
#X obj 178 56 / 2;
#X obj 111 73 +;
#X obj 220 96 -;
#X obj 111 38 nbx 5 16 0 16000 0 1 empty empty empty 0 -8 0 10 -257985
-1 -1 369 256;
#X floatatom 111 122 5 0 0 0 - - -, f 5;
#X floatatom 220 118 5 0 0 0 - - -, f 5;
#X obj 220 151 osc~ 100;
#X obj 111 262 outlet~;
#X obj 219 262 outlet~;
#X obj 111 -12 list append \$1 \$2;
#X obj 111 9 unpack 0 0;
#X obj 111 -32 loadbang;
#X obj 110 233 *~;
#X obj 220 233 *~;
#X obj 333 216 line~;
#X msg 333 195 \$1 20;
#X obj 333 71 inlet;
#X obj 111 179 *~ 0.9;
#X obj 220 178 *~ 0.9;
#X connect 0 0 19 0;
#X connect 1 0 2 0;
#X connect 2 0 3 1;
#X connect 2 0 4 1;
#X connect 3 0 6 0;
#X connect 4 0 7 0;
#X connect 5 0 3 0;
#X connect 5 0 4 0;
#X connect 6 0 0 0;
#X connect 7 0 8 0;
#X connect 8 0 20 0;
#X connect 11 0 12 0;
#X connect 12 0 5 0;
#X connect 12 1 1 0;
#X connect 13 0 11 0;
#X connect 14 0 9 0;
#X connect 15 0 10 0;
#X connect 16 0 14 1;
#X connect 16 0 15 1;
#X connect 17 0 16 0;
#X connect 18 0 17 0;
#X connect 19 0 14 0;
#X connect 20 0 15 0;
