#N canvas 1 97 450 300 10;
#X obj 111 182 osc~ 100;
#X obj 178 35 nbx 5 16 0.1 20 0 0 empty empty empty 0 -8 0 10 -260097
-1 -1 2 256;
#X obj 178 56 / 2;
#X obj 111 73 +;
#X obj 220 96 -;
#X obj 111 38 nbx 5 16 0 16000 0 1 empty empty empty 0 -8 0 10 -257985
-1 -1 417 256;
#X floatatom 111 99 5 0 0 0 - - -, f 5;
#X floatatom 220 118 5 0 0 0 - - -, f 5;
#X obj 220 186 osc~ 100;
#X obj 111 262 outlet~;
#X obj 219 262 outlet~;
#X obj 111 -32 loadbang;
#X obj 110 233 *~;
#X obj 220 233 *~;
#X obj 333 216 line~;
#X msg 333 195 \$1 20;
#X obj 111 209 *~ 0.9;
#X obj 220 208 *~ 0.9;
#X obj 111 -12 list append \$1 \$2 \$3;
#X obj 111 9 unpack 0 0 0;
#X text 243 -12 main freq \, beat \, amplitude;
#X obj 171 -34 inlet;
#X msg 111 122 \$1 5;
#X obj 111 145 line~;
#X msg 220 140 \$1 5;
#X obj 220 163 line~;
#X connect 0 0 16 0;
#X connect 1 0 2 0;
#X connect 2 0 3 1;
#X connect 2 0 4 1;
#X connect 3 0 6 0;
#X connect 4 0 7 0;
#X connect 5 0 3 0;
#X connect 5 0 4 0;
#X connect 6 0 22 0;
#X connect 7 0 24 0;
#X connect 8 0 17 0;
#X connect 11 0 18 0;
#X connect 12 0 9 0;
#X connect 13 0 10 0;
#X connect 14 0 12 1;
#X connect 14 0 13 1;
#X connect 15 0 14 0;
#X connect 16 0 12 0;
#X connect 17 0 13 0;
#X connect 18 0 19 0;
#X connect 19 0 5 0;
#X connect 19 1 1 0;
#X connect 19 2 15 0;
#X connect 21 0 19 0;
#X connect 22 0 23 0;
#X connect 23 0 0 0;
#X connect 24 0 25 0;
#X connect 25 0 8 0;
