#N canvas 610 218 450 300 10;
#X obj 53 67 hsl 90 20 0 1 0 1 empty empty empty -2 -8 0 10 -257985
-1 -1 2400 1;
#X obj 195 70 hsl 90 20 0 1 0 1 empty empty empty -2 -8 0 10 -257985
-1 -1 1700 1;
#X text 11 4 binaural beat with inlet for volume;
#X obj 50 95 az.binbeat~ 396 3.2;
#X obj 192 98 az.binbeat~ 528 0.3;
#X obj 122 149 az.output~;
#X connect 0 0 3 0;
#X connect 1 0 4 0;
#X connect 3 0 5 0;
#X connect 3 1 5 1;
#X connect 4 0 5 0;
#X connect 4 1 5 1;
