#N canvas 4 84 948 680 10;
#X obj 10 -47 inlet~;
#X obj 325 46 delwrite~ \$0-zxcv 2000;
#X obj 121 140 vd~ \$0-zxcv;
#X obj 121 112 sig~;
#X obj 124 60 hsl 40 12 0 2000 0 1 empty empty time_l 5 5 0 10 -1 -262144
-262144 1515 1;
#X obj 494 163 hsl 90 9 0 1 0 1 empty empty feedback 5 5 0 10 -66577
-262144 -262144 4450 1;
#X obj 345 180 sig~;
#X obj 348 154 hsl 40 12 0 2000 0 1 empty empty time_r 5 5 0 10 -1
-262144 -262144 1732 1;
#X obj 344 208 vd~ \$0-zxcc;
#X obj 550 98 delwrite~ \$0-zxcc 2000;
#X obj 112 522 outlet~;
#X obj 236 451 vline~;
#X obj 176 460 -~;
#X obj 176 480 *~;
#X obj 236 429 pack 0 10;
#X obj 345 532 outlet~;
#X obj 470 449 vline~;
#X obj 410 458 -~;
#X obj 410 478 *~;
#X obj 470 427 pack 0 10;
#X obj 600 256 hsl 90 9 0 1 0 1 empty empty dry/wet 5 3 0 10 -66577
-262144 -262144 890 1;
#X obj 653 -27 list append \$1 \$2 \$3 \$4;
#X obj 652 10 unpack f f f f;
#X obj 653 -47 loadbang;
#X obj 803 -52 inlet;
#N canvas 394 414 450 300 mull 0;
#X obj 188 59 inlet~;
#X obj 284 34 inlet;
#X obj 182 152 outlet~;
#X obj 182 123 *~;
#X obj 198 101 line~;
#X msg 283 61 \$1 20;
#X connect 0 0 3 0;
#X connect 1 0 5 0;
#X connect 3 0 2 0;
#X connect 4 0 3 1;
#X connect 5 0 4 0;
#X restore 250 204 pd mull;
#N canvas 394 414 450 300 mull 0;
#X obj 188 59 inlet~;
#X obj 284 34 inlet;
#X obj 182 152 outlet~;
#X obj 182 123 *~;
#X obj 198 101 line~;
#X msg 283 61 \$1 20;
#X connect 0 0 3 0;
#X connect 1 0 5 0;
#X connect 3 0 2 0;
#X connect 4 0 3 1;
#X connect 5 0 4 0;
#X restore 399 276 pd mull;
#X connect 0 0 1 0;
#X connect 0 0 9 0;
#X connect 0 0 10 0;
#X connect 0 0 12 1;
#X connect 0 0 15 0;
#X connect 0 0 17 1;
#X connect 0 0 17 0;
#X connect 0 0 12 0;
#X connect 2 0 12 0;
#X connect 2 0 25 0;
#X connect 3 0 2 0;
#X connect 4 0 3 0;
#X connect 5 0 25 1;
#X connect 5 0 26 1;
#X connect 6 0 8 0;
#X connect 7 0 6 0;
#X connect 8 0 17 0;
#X connect 8 0 26 0;
#X connect 11 0 13 1;
#X connect 12 0 13 0;
#X connect 13 0 10 0;
#X connect 14 0 11 0;
#X connect 16 0 18 1;
#X connect 17 0 18 0;
#X connect 18 0 15 0;
#X connect 19 0 16 0;
#X connect 20 0 14 0;
#X connect 20 0 19 0;
#X connect 21 0 22 0;
#X connect 22 0 4 0;
#X connect 22 1 7 0;
#X connect 22 2 5 0;
#X connect 22 3 20 0;
#X connect 23 0 21 0;
#X connect 24 0 22 0;
#X connect 25 0 1 0;
#X connect 26 0 9 0;
