#N canvas 4 97 450 300 10;
#X obj 118 78 osc~ 333;
#X obj 255 81 bng 15 250 50 0 empty empty empty 17 7 0 10 -262144 -1
-1;
#X msg 187 22 222 444 1666;
#X msg 221 57 2 2 2;
#X obj 118 106 az.eahd~ 1 111 11;
#X obj 39 139 az.output~;
#X text 240 108 Envelope -Attak hold decay;
#X connect 0 0 4 0;
#X connect 1 0 4 2;
#X connect 2 0 4 1;
#X connect 3 0 4 1;
#X connect 4 0 5 2;
