#N canvas 43 341 450 300 10;
#X obj 180 11 loadbang;
#X obj 163 180 *~;
#X obj 180 55 unpack 0 0 0;
#X obj 120 83 inlet~;
#X obj 120 220 outlet~;
#X obj 298 -12 inlet bang;
#X text 10 33 attack \, duration \, decay;
#X obj 181 33 list append \$1 \$2 \$3;
#X obj 180 160 line~;
#X obj 215 102 pack 0 \$3;
#X obj 181 80 del \$2;
#X msg 181 102 0;
#X obj 180 131 pack 0 \$1;
#X msg 330 45 1;
#X obj 298 9 t b b;
#X obj 221 -14 inlet;
#X connect 0 0 7 0;
#X connect 1 0 4 0;
#X connect 2 0 12 1;
#X connect 2 1 10 1;
#X connect 2 2 9 1;
#X connect 3 0 1 0;
#X connect 5 0 14 0;
#X connect 7 0 2 0;
#X connect 8 0 1 1;
#X connect 9 0 8 0;
#X connect 10 0 11 0;
#X connect 11 0 9 0;
#X connect 12 0 8 0;
#X connect 13 0 12 0;
#X connect 14 0 10 0;
#X connect 14 1 13 0;
#X connect 15 0 7 0;
