#N canvas 210 331 246 272 10;
#X obj 3 58 inlet~;
#X obj 5 208 outlet~;
#X obj 4 160 *~;
#X obj 206 52 inlet;
#X obj 63 45 loadbang;
#X obj 63 97 unpack 0 0;
#X obj 63 69 list append \$1 \$2;
#X obj 5 185 clip~ -1 1;
#N canvas 624 242 450 300 ead 0;
#X obj 291 324 vline~;
#X obj 112 115 max 0.1;
#X obj 142 199 max 0.1;
#X obj 97 55 inlet;
#X obj 112 95 inlet;
#X obj 142 179 inlet;
#X obj 154 477 outlet~;
#X obj 97 75 b;
#X obj 97 318 vline~;
#X obj 97 225 pack 3 4;
#X text 139 293 attack;
#X text 327 295 decay;
#X msg 97 271 1 \, 0 \$1 0 \, 1 0 \$1;
#X msg 291 271 0 \, 1 0 \$1 \, 0 \$2 \$1;
#X obj 97 205 f 3;
#X msg 31 271 1;
#X obj 31 249 loadbang;
#X obj 72 347 sig~ 1;
#X obj 71 420 -~;
#X obj 88 397 *~;
#X obj 88 376 *~;
#X obj 290 402 *~;
#X obj 291 379 *~;
#X connect 0 0 22 0;
#X connect 0 0 22 1;
#X connect 1 0 14 1;
#X connect 2 0 9 1;
#X connect 3 0 7 0;
#X connect 4 0 1 0;
#X connect 5 0 2 0;
#X connect 7 0 14 0;
#X connect 8 0 20 0;
#X connect 8 0 20 1;
#X connect 9 0 13 0;
#X connect 9 0 12 0;
#X connect 12 0 8 0;
#X connect 13 0 0 0;
#X connect 14 0 9 0;
#X connect 15 0 8 0;
#X connect 16 0 15 0;
#X connect 17 0 18 0;
#X connect 18 0 6 0;
#X connect 19 0 18 1;
#X connect 20 0 19 0;
#X connect 20 0 19 1;
#X connect 21 0 6 0;
#X connect 22 0 21 0;
#X connect 22 0 21 1;
#X restore 20 138 pd ead;
#X obj 132 39 inlet;
#X connect 0 0 2 0;
#X connect 2 0 7 0;
#X connect 3 0 8 0;
#X connect 4 0 6 0;
#X connect 5 0 8 1;
#X connect 5 1 8 2;
#X connect 6 0 5 0;
#X connect 7 0 1 0;
#X connect 8 0 2 1;
#X connect 9 0 5 0;
