#N canvas 183 291 450 300 10;
#X msg 174 64 200 666;
#X obj 236 129 bng 15 250 50 0 empty empty empty 17 7 0 10 -262144
-1 -1;
#X obj 152 146 noise~;
#X obj 290 130 metro 1000;
#X msg 232 64 12 234;
#X obj 291 106 tgl 15 0 empty empty empty 17 7 0 10 -262144 -1 -1 1
1;
#X msg 285 65 5 16;
#X text 7 8 Envelope Attak-Decay 1-audio signal in 2-A-D pair message
3- bang, f 73;
#X text 255 176 arguments: Attak and decay in ms;
#X obj 152 175 az.eader~ 5 200;
#X obj 73 210 az.output~;
#X connect 0 0 9 1;
#X connect 1 0 9 2;
#X connect 2 0 9 0;
#X connect 3 0 9 2;
#X connect 4 0 9 1;
#X connect 5 0 3 0;
#X connect 6 0 9 1;
#X connect 9 0 10 2;
