#N canvas 1 88 450 501 10;
#X obj 43 178 osc~ 1;
#X obj 44 203 +~ 1;
#X obj 44 225 *~ 0.5;
#X obj 31 326 *~;
#X obj 172 83 hsl 82 10 0 1 0 1 empty empty depth 5 5 0 10 -232576
-1 -1 5900 1;
#X floatatom 156 149 5 0 0 0 - - -, f 5;
#X obj 156 168 swap 1;
#X obj 162 194 -;
#X obj 45 298 +~;
#X msg 162 216 \$1 30;
#X obj 162 236 line~;
#X msg 101 192 \$1 30;
#X obj 101 214 line~;
#X obj 44 248 *~;
#X obj 229 146 hsl 82 10 0 20 0 1 empty empty rate 5 5 0 10 -204800
-1 -1 5300 1;
#X text 210 114 lfo depth and amplitude;
#X obj 31 76 inlet~;
#X obj 30 347 outlet~;
#X obj 169 60 unpack f f;
#X obj 210 12 loadbang;
#X obj 210 32 list append \$1 \$2;
#X text 265 81 0 - 1;
#X text 327 143 0 - 20;
#X obj 340 12 inlet;
#X connect 0 0 1 0;
#X connect 1 0 2 0;
#X connect 2 0 13 0;
#X connect 3 0 17 0;
#X connect 4 0 11 0;
#X connect 4 0 6 0;
#X connect 5 0 6 0;
#X connect 6 0 7 0;
#X connect 6 1 7 1;
#X connect 7 0 9 0;
#X connect 8 0 3 1;
#X connect 9 0 10 0;
#X connect 10 0 8 1;
#X connect 11 0 12 0;
#X connect 12 0 13 1;
#X connect 13 0 8 0;
#X connect 14 0 0 0;
#X connect 16 0 3 0;
#X connect 18 0 4 0;
#X connect 18 1 14 0;
#X connect 18 1 0 0;
#X connect 19 0 20 0;
#X connect 20 0 18 0;
#X connect 23 0 18 0;
#X coords 0 501 1 500 90 40 0;
