#N canvas 1 97 450 300 10;
#X obj 197 33 metro 500;
#X obj 197 59 f;
#X obj 225 60 + 1;
#X msg 237 154 69;
#X msg 203 155 57;
#X msg 168 154 45;
#X obj 166 34 tgl 15 0 empty empty empty 17 7 0 10 -262144 -1 -1 1
1;
#X floatatom 98 253 5 0 0 0 - - -, f 5;
#X obj 96 230 az.mtoftune 432;
#X obj 197 83 mod 3;
#X obj 197 106 sel 0 1 2;
#X msg 314 196 440;
#X msg 347 198 432;
#X msg 277 194 444;
#X connect 0 0 1 0;
#X connect 1 0 2 0;
#X connect 1 0 9 0;
#X connect 2 0 1 1;
#X connect 3 0 8 0;
#X connect 4 0 8 0;
#X connect 5 0 8 0;
#X connect 6 0 0 0;
#X connect 8 0 7 0;
#X connect 9 0 10 0;
#X connect 10 0 5 0;
#X connect 10 1 4 0;
#X connect 10 2 3 0;
#X connect 11 0 8 1;
#X connect 12 0 8 1;
#X connect 13 0 8 1;
