#N canvas 1 97 450 300 10;
#X obj 96 230 expr $f2*(pow (2 \, (($f1-69)/12)));
#X obj 291 110 loadbang;
#X obj 96 207 inlet;
#X obj 95 253 outlet;
#X obj 291 142 list append \$1;
#X obj 389 142 inlet;
#X connect 0 0 3 0;
#X connect 1 0 4 0;
#X connect 2 0 0 0;
#X connect 4 0 0 1;
#X connect 5 0 0 1;
