#N canvas 2 79 450 300 10;
#X obj 229 117 lop~ 1;
#X obj 229 136 lop~ 1;
#X obj 229 155 *~ 100;
#X obj 229 174 clip~ 0 1;
#X obj 213 193 *~;
#X obj 229 98 noise~;
#X obj 158 177 inlet~;
#X obj 245 210 outlet~;
#X connect 0 0 1 0;
#X connect 1 0 2 0;
#X connect 2 0 3 0;
#X connect 3 0 4 1;
#X connect 4 0 7 0;
#X connect 5 0 0 0;
#X connect 6 0 4 0;
