#N canvas 502 162 450 300 10;
#X obj 25 106 bng 15 250 50 0 empty empty empty 17 7 0 10 -262144 -1
-1;
#X obj 25 145 bng 15 250 50 0 empty empty empty 17 7 0 10 -262144 -1
-1;
#X obj 82 104 bng 15 250 50 0 empty empty empty 17 7 0 10 -262144 -1
-1;
#X text 106 107 reset;
#X text 9 6 onebang passes just the first bang until it's resetted
;
#X obj 25 124 az.onebang;
#X connect 0 0 5 0;
#X connect 2 0 5 1;
#X connect 5 0 1 0;
