#N canvas 4 97 450 489 10;
#X obj 37 385 dac~;
#X obj 168 104 tgl 15 0 empty empty empty 17 7 0 10 -262144 -1 -1 0
1;
#X obj 254 63 inlet~ Mono;
#X obj 87 258 *~;
#X obj 105 122 hsl 77 20 0 1 0 1 empty empty --volume 3 7 0 10 -203904
-1 -1 800 0;
#X msg 102 154 \$1 20;
#X obj 102 177 line~;
#X obj 87 322 outlet~;
#X obj 147 260 *~;
#X obj 147 324 outlet~;
#X obj 271 199 *~;
#X obj 18 68 inlet~ L;
#X obj 163 33 inlet~ R;
#X obj 255 88 hip~ 3;
#X obj 18 99 hip~ 3;
#X obj 162 63 hip~ 3;
#X obj 355 378 loadbang;
#X msg 355 404 \; pd dsp 1;
#X obj 56 194 line~;
#X msg 56 171 \$1 5;
#X obj 40 218 *~;
#X obj 181 182 line~;
#X msg 181 159 \$1 5;
#X obj 165 206 *~;
#X obj 287 142 line~;
#X msg 287 119 \$1 5;
#X obj 271 167 *~;
#X connect 1 0 19 0;
#X connect 1 0 22 0;
#X connect 1 0 25 0;
#X connect 2 0 13 0;
#X connect 3 0 7 0;
#X connect 3 0 0 0;
#X connect 4 0 5 0;
#X connect 5 0 6 0;
#X connect 6 0 3 1;
#X connect 6 0 8 0;
#X connect 6 0 10 1;
#X connect 8 0 9 0;
#X connect 8 0 0 1;
#X connect 10 0 0 1;
#X connect 10 0 0 0;
#X connect 10 0 9 0;
#X connect 10 0 7 0;
#X connect 11 0 14 0;
#X connect 12 0 15 0;
#X connect 13 0 26 0;
#X connect 14 0 20 0;
#X connect 15 0 23 0;
#X connect 16 0 17 0;
#X connect 18 0 20 1;
#X connect 19 0 18 0;
#X connect 20 0 3 0;
#X connect 21 0 23 1;
#X connect 22 0 21 0;
#X connect 23 0 8 1;
#X connect 24 0 26 1;
#X connect 25 0 24 0;
#X connect 26 0 10 0;
#X coords 0 -1 1 1 86 45 1 100 100;
