#N canvas 437 159 450 300 10;
#X obj -53 228 dac~;
#X obj -53 71 catch~ L;
#X obj -33 121 catch~ R;
#X obj -53 92 clip~ -1 1;
#X obj -32 145 clip~ -1 1;
#X obj -134 69 loadbang;
#X msg -134 94 \; pd dsp 1;
#X obj 103 126 vu 10 80 empty empty -1 -8 0 10 -66577 -1 1 0;
#X obj 103 53 env~;
#X obj 50 76 - 100;
#X obj 150 126 vu 10 80 empty empty -1 -8 0 10 -66577 -1 1 0;
#X obj 103 76 - 100;
#X obj 50 50 env~;
#X obj -131 248 outlet~;
#X obj 46 252 outlet~;
#X obj -33 203 hip~ 3;
#X obj -52 178 hip~ 3;
#X connect 1 0 3 0;
#X connect 2 0 4 0;
#X connect 3 0 12 0;
#X connect 3 0 13 0;
#X connect 3 0 16 0;
#X connect 4 0 8 0;
#X connect 4 0 14 0;
#X connect 4 0 15 0;
#X connect 5 0 6 0;
#X connect 8 0 11 0;
#X connect 9 0 7 0;
#X connect 11 0 10 0;
#X connect 12 0 9 0;
#X connect 15 0 0 1;
#X connect 16 0 0 0;
#X coords 0 -1 1 1 90 110 1 100 100;
