#N canvas 1 97 450 300 10;
#X obj 91 164 az.throwLR~;
#X obj 282 76 az.out-vu~;
#X obj 91 32 noise~;
#X obj 178 56 metro 500;
#X obj 178 29 tgl 15 0 empty empty empty 17 7 0 10 -262144 -1 -1 1
1;
#X obj 91 55 bp~ 5500 99;
#X obj 91 85 az.eader~ 1 123;
#X obj 91 114 az.del~ 500 662 0.1 0.5;
#X text 239 27 vu meters receive throw~ L and R;
#X connect 2 0 5 0;
#X connect 3 0 6 2;
#X connect 4 0 3 0;
#X connect 5 0 6 0;
#X connect 6 0 7 0;
#X connect 7 0 0 0;
#X connect 7 1 0 1;
