#N canvas 829 174 450 457 10;
#X obj 198 294 *~;
#X floatatom 237 117 0 0 0 0 - - -;
#X obj 308 278 line~;
#X floatatom 197 97 0 0 0 0 - - -;
#X obj 32 334 cos~;
#X obj 32 311 +~;
#X obj 198 262 osc~ 0;
#X obj 308 252 pack 0 50;
#X floatatom 308 199 0 0 0 0 - - -;
#X obj 308 226 / 100;
#X text 282 161 modulation index;
#X text 282 176 in hundredths;
#X text 27 207 carrier;
#X text 22 227 frequency;
#X text 183 241 frequency;
#X text 184 224 modulation;
#X obj 32 268 phasor~;
#X obj 34 416 hip~ 5;
#X obj 197 51 inlet;
#X obj 197 73 unpack f f f;
#X obj 34 438 outlet~;
#X obj 33 393 expr~ tanh($v1);
#X obj 32 356 *~ 0.99;
#X obj 246 45 list append \$1 \$2 \$3;
#X obj 246 23 loadbang;
#X obj 33 175 line~;
#X msg 33 152 \$1 5;
#X obj 199 202 line~;
#X msg 199 179 \$1 5;
#X connect 0 0 5 1;
#X connect 1 0 28 0;
#X connect 2 0 0 1;
#X connect 3 0 26 0;
#X connect 4 0 22 0;
#X connect 5 0 4 0;
#X connect 6 0 0 0;
#X connect 7 0 2 0;
#X connect 8 0 9 0;
#X connect 9 0 7 0;
#X connect 16 0 5 0;
#X connect 17 0 20 0;
#X connect 18 0 19 0;
#X connect 19 0 3 0;
#X connect 19 1 1 0;
#X connect 19 2 8 0;
#X connect 21 0 17 0;
#X connect 22 0 21 0;
#X connect 23 0 19 0;
#X connect 24 0 23 0;
#X connect 25 0 16 0;
#X connect 26 0 25 0;
#X connect 27 0 6 0;
#X connect 28 0 27 0;
