#N canvas 586 236 450 300 10;
#X obj 117 87 phasor~ 88;
#X obj 117 17 tgl 15 0 empty empty empty 17 7 0 10 -262144 -1 -1 1
1;
#X obj 117 40 metro 100;
#X obj 168 -44 random 3;
#X obj 168 -22 sel 0 1 2;
#X msg 168 -1 100;
#X msg 188 24 150;
#X msg 208 -2 50;
#X obj 117 62 expr random(50 \, 90);
#X obj 40 181 az.output~;
#X obj 117 110 -~ 0.5;
#X text 0 -45 auto sweeping lp/bp filter;
#X text 141 130 sweep \, q \, filter type (0=lp \, 1=bp);
#X obj 118 151 az.svcf~ 100 22 0;
#X connect 0 0 10 0;
#X connect 1 0 2 0;
#X connect 2 0 3 0;
#X connect 2 0 8 0;
#X connect 3 0 4 0;
#X connect 4 0 5 0;
#X connect 4 1 6 0;
#X connect 4 2 7 0;
#X connect 5 0 2 1;
#X connect 6 0 2 1;
#X connect 7 0 2 1;
#X connect 8 0 0 0;
#X connect 10 0 13 0;
#X connect 13 0 9 2;
