#N canvas 119 180 450 300 10;
#X obj 212 109 line~;
#X obj 36 77 inlet~;
#X obj 68 188 outlet~;
#X obj 133 191 outlet~;
#X obj 110 73 -;
#X obj 110 117 line~;
#X obj 69 165 *~;
#X obj 132 169 *~;
#X obj 189 15 inlet;
#X msg 212 79 \$1 11;
#X msg 110 95 \$1 11;
#X msg 110 52 1 \$1;
#X connect 0 0 7 1;
#X connect 1 0 6 0;
#X connect 1 0 7 0;
#X connect 4 0 10 0;
#X connect 5 0 6 1;
#X connect 6 0 2 0;
#X connect 7 0 3 0;
#X connect 8 0 9 0;
#X connect 8 0 11 0;
#X connect 9 0 0 0;
#X connect 10 0 5 0;
#X connect 11 0 4 0;
