#N canvas 2 97 450 300 10;
#X obj 15 29 sig~;
#X floatatom 15 8 5 0 0 0 - - -, f 5;
#X obj 132 64 tgl 15 0 empty empty empty 17 7 0 10 -262144 -1 -1 0
1;
#X obj 16 57 tabosc4~ \$0-jog;
#N canvas 251 355 450 300 delstuff 0;
#X obj 18 88 vd~ \$0-jogdel;
#X obj 16 249 outlet~;
#X obj 17 194 tanh~;
#X obj 18 69 sig~ 12;
#X obj 144 89 vd~ \$0-jogdel;
#X obj 263 87 vd~ \$0-jogdel;
#X obj 263 68 sig~ 51;
#X obj 167 -16 tgl 15 0 empty empty empty 17 7 0 10 -262144 -1 -1 1
1;
#X obj 144 70 sig~ 66;
#X obj 17 215 *~ 0.77;
#X obj 167 -37 loadbang;
#X obj 343 54 az.randometro 88 444;
#X obj 17 110 az.eader~ 3 21;
#X obj 144 108 az.eader~ 6 66;
#X obj 262 107 az.eader~ 4 44;
#X obj 17 132 az.nzvol~;
#X obj 145 129 az.nzvol~;
#X obj 263 128 az.nzvol~;
#X obj 80 44 az.randometro 79 446;
#X obj 206 48 az.randometro 88 445;
#X connect 0 0 12 0;
#X connect 2 0 9 0;
#X connect 3 0 0 0;
#X connect 4 0 13 0;
#X connect 5 0 14 0;
#X connect 6 0 5 0;
#X connect 7 0 11 0;
#X connect 7 0 18 0;
#X connect 7 0 19 0;
#X connect 8 0 4 0;
#X connect 9 0 1 0;
#X connect 10 0 7 0;
#X connect 11 0 14 2;
#X connect 12 0 15 0;
#X connect 13 0 16 0;
#X connect 14 0 17 0;
#X connect 15 0 2 0;
#X connect 16 0 2 0;
#X connect 17 0 2 0;
#X connect 18 0 12 2;
#X connect 19 0 13 2;
#X restore 174 45 pd delstuff;
#X obj 173 134 throw~ L;
#X obj 241 135 throw~ R;
#X obj -109 -57 inlet onoff;
#X obj 96 -10 inlet;
#X obj 96 12 mtof;
#N canvas 483 644 218 123 tablestuff 0;
#X obj 6 13 loadbang;
#X obj 62 13 table \$0-jog 19;
#X obj 6 55 s \$0-jog;
#X msg 6 34 sinesum -.0.33 0.21 -0.31 0.3;
#X connect 0 0 3 0;
#X connect 3 0 2 0;
#X restore -109 25 pd tablestuff;
#X obj 174 65 az.del~ 444 666 0.4 0.3;
#X obj 17 79 az.vol~ 2000;
#X obj 17 100 delwrite~ \$0-jogdel 1000;
#X obj 175 99 rev3~ 88 99 888 8;
#X connect 0 0 3 0;
#X connect 1 0 0 0;
#X connect 2 0 12 1;
#X connect 3 0 12 0;
#X connect 4 0 11 0;
#X connect 7 0 2 0;
#X connect 8 0 9 0;
#X connect 9 0 0 0;
#X connect 11 0 14 0;
#X connect 11 1 14 1;
#X connect 12 0 13 0;
#X connect 14 0 5 0;
#X connect 14 1 6 0;
#X connect 14 2 5 0;
#X connect 14 3 6 0;
