#N canvas 1 97 450 300 10;
#X obj 91 106 az.spigot~;
#X obj 91 57 noise~;
#X obj 81 161 az.output~;
#X obj 148 80 tgl 15 0 empty empty empty 17 7 0 10 -262144 -1 -1 0
1;
#X text 160 106 sends signal to left (0) or right (1);
#X connect 0 0 2 0;
#X connect 0 1 2 1;
#X connect 1 0 0 0;
#X connect 3 0 0 1;
