#N canvas 2 197 177 226 10;
#X obj 7 155 *~;
#X obj 7 175 outlet~;
#X obj 7 135 inlet~;
#X obj 22 113 line~;
#X msg 22 90 \$1 \$2;
#X obj 22 66 pack 0 0;
#X obj 22 39 inlet;
#X obj 67 11 loadbang;
#X obj 67 42 list append \$1;
#X connect 0 0 1 0;
#X connect 2 0 0 0;
#X connect 3 0 0 1;
#X connect 4 0 3 0;
#X connect 5 0 4 0;
#X connect 6 0 5 0;
#X connect 7 0 8 0;
#X connect 8 0 5 1;
