#N canvas 1 0 449 300 10;
#X obj -98 167 inlet~;
#X obj -32 167 inlet~;
#X obj -97 278 outlet~;
#X obj 101 75 inlet;
#X obj 27 207 vline~;
#X obj -33 216 -~;
#X obj -33 236 *~;
#X obj 104 114 hsl 82 15 0 1 0 1 empty empty x_fade_0-1 7 7 1 10 -101227
-1 -1 0 1;
#X obj 101 164 pack 0 10;
#X connect 0 0 5 1;
#X connect 0 0 2 0;
#X connect 1 0 5 0;
#X connect 3 0 7 0;
#X connect 4 0 6 1;
#X connect 5 0 6 0;
#X connect 6 0 2 0;
#X connect 7 0 8 0;
#X connect 8 0 4 0;
#X coords 0 -1 1 1 90 30 1 100 100;
